<svg width="477" height="580" viewBox="0 0 477 580" fill="none" xmlns="http://www.w3.org/2000/svg">
<path d="M313.468 228.577L316 304.5L389.064 386.031L200.438 318.056L145 355.5L67 489L89.4349 310.474L157.101 29.7919L178.754 220.423L313.468 228.577Z" fill="#A9EF90"/>
<path d="M129.036 76.0038L187.202 0L205 221.5L87 325L129.036 76.0038Z" fill="#E4A3E5"/>
<path d="M129.385 99.3077H136.769V106.692H129.385V99.3077ZM129.385 106.692H136.769V114.077H129.385V106.692ZM129.385 114.077H136.769V121.462H129.385V114.077ZM129.385 121.462H136.769V128.846H129.385V121.462ZM129.385 128.846H136.769V136.231H129.385V128.846ZM136.769 136.231H144.154V143.615H136.769V136.231ZM144.154 143.615H151.538V151H144.154V143.615ZM151.538 143.615H158.923V151H151.538V143.615ZM158.923 143.615H166.308V151H158.923V143.615ZM166.308 143.615H173.692V151H166.308V143.615ZM173.692 136.231H181.077V143.615H173.692V136.231ZM181.077 128.846H188.462V136.231H181.077V128.846ZM181.077 121.462H188.462V128.846H181.077V121.462ZM181.077 114.077H188.462V121.462H181.077V114.077ZM173.692 106.692H181.077V114.077H173.692V106.692ZM173.692 84.5385H181.077V91.9231H173.692V84.5385ZM151.538 84.5385H158.923V91.9231H151.538V84.5385ZM144.154 84.5385H151.538V91.9231H144.154V84.5385ZM136.769 91.9231H144.154V99.3077H136.769V91.9231ZM151.538 106.692H158.923V114.077H151.538V106.692ZM158.923 106.692H166.308V114.077H158.923V106.692ZM151.538 114.077H158.923V121.462H151.538V114.077ZM151.538 121.462H158.923V128.846H151.538V121.462ZM144.154 121.462H151.538V128.846H144.154V121.462ZM158.923 84.5385H166.308V91.9231H158.923V84.5385ZM166.308 91.9231H173.692V99.3077H166.308V91.9231ZM166.308 106.692H173.692V114.077H166.308V106.692Z" fill="white"/>
<path d="M127.385 184.462H135.077V192.154H127.385V184.462ZM127.385 192.154H135.077V199.846H127.385V192.154ZM127.385 199.846H135.077V207.538H127.385V199.846ZM135.077 207.538H142.769V215.231H135.077V207.538ZM142.769 215.231H150.462V222.923H142.769V215.231ZM142.769 222.923H150.462V230.615H142.769V222.923ZM135.077 230.615H142.769V238.308H135.077V230.615ZM127.385 230.615H135.077V238.308H127.385V230.615ZM119.692 238.308H127.385V246H119.692V238.308ZM142.769 238.308H150.462V246H142.769V238.308ZM150.462 238.308H158.154V246H150.462V238.308ZM158.154 238.308H165.846V246H158.154V238.308ZM135.077 176.769H142.769V184.462H135.077V176.769ZM142.769 176.769H150.462V184.462H142.769V176.769ZM150.462 176.769H158.154V184.462H150.462V176.769ZM158.154 184.462H165.846V192.154H158.154V184.462ZM158.154 192.154H165.846V199.846H158.154V192.154ZM150.462 199.846H158.154V207.538H150.462V199.846ZM158.154 207.538H165.846V215.231H158.154V207.538ZM165.846 230.615H173.538V238.308H165.846V230.615Z" fill="white"/>
<path d="M184.154 252.923H190.308V259.077H184.154V252.923ZM184.154 259.077H190.308V265.231H184.154V259.077ZM184.154 265.231H190.308V271.385H184.154V265.231ZM184.154 271.385H190.308V277.538H184.154V271.385ZM190.308 277.538H196.462V283.692H190.308V277.538ZM190.308 283.692H196.462V289.846H190.308V283.692ZM196.462 283.692H202.615V289.846H196.462V283.692ZM202.615 289.846H208.769V296H202.615V289.846ZM208.769 289.846H214.923V296H208.769V289.846ZM214.923 289.846H221.077V296H214.923V289.846ZM221.077 289.846H227.231V296H221.077V289.846ZM227.231 283.692H233.385V289.846H227.231V283.692ZM190.308 246.769H196.462V252.923H190.308V246.769ZM196.462 240.615H202.615V246.769H196.462V240.615ZM202.615 240.615H208.769V246.769H202.615V240.615ZM208.769 240.615H214.923V246.769H208.769V240.615ZM214.923 246.769H221.077V252.923H214.923V246.769ZM221.077 240.615H227.231V246.769H221.077V240.615ZM227.231 240.615H233.385V246.769H227.231V240.615ZM227.231 246.769H233.385V252.923H227.231V246.769ZM202.615 252.923H208.769V259.077H202.615V252.923ZM202.615 259.077H208.769V265.231H202.615V259.077ZM208.769 265.231H214.923V271.385H208.769V265.231ZM202.615 271.385H208.769V277.538H202.615V271.385ZM214.923 265.231H221.077V271.385H214.923V265.231ZM221.077 259.077H227.231V265.231H221.077V259.077ZM221.077 265.231H227.231V271.385H221.077V265.231ZM221.077 271.385H227.231V277.538H221.077V271.385Z" fill="white"/>
<path d="M144.154 309.846H151.538V317.231H144.154V309.846ZM144.154 302.462H151.538V309.846H144.154V302.462ZM144.154 295.077H151.538V302.462H144.154V295.077ZM136.769 287.692H144.154V295.077H136.769V287.692ZM129.385 295.077H136.769V302.462H129.385V295.077ZM151.538 287.692H158.923V295.077H151.538V287.692ZM158.923 287.692H166.308V295.077H158.923V287.692ZM166.308 295.077H173.692V302.462H166.308V295.077ZM144.154 317.231H151.538V324.615H144.154V317.231ZM136.769 324.615H144.154V332H136.769V324.615ZM158.923 317.231H166.308V324.615H158.923V317.231ZM151.538 324.615H158.923V332H151.538V324.615Z" fill="white"/>
<path d="M82.3846 376.615H89.7692V384H82.3846V376.615ZM89.7692 369.231H97.1538V376.615H89.7692V369.231ZM89.7692 361.846H97.1538V369.231H89.7692V361.846ZM89.7692 354.462H97.1538V361.846H89.7692V354.462ZM89.7692 347.077H97.1538V354.462H89.7692V347.077ZM97.1538 339.692H104.538V347.077H97.1538V339.692ZM104.538 339.692H111.923V347.077H104.538V339.692ZM119.308 339.692H126.692V347.077H119.308V339.692ZM111.923 347.077H119.308V354.462H111.923V347.077ZM111.923 354.462H119.308V361.846H111.923V354.462ZM111.923 361.846H119.308V369.231H111.923V361.846ZM111.923 369.231H119.308V376.615H111.923V369.231ZM97.1538 376.615H104.538V384H97.1538V376.615ZM104.538 369.231H111.923V376.615H104.538V369.231ZM119.308 376.615H126.692V384H119.308V376.615Z" fill="white"/>
<path d="M277.462 267.846H283.154V273.538H277.462V267.846ZM277.462 273.538H283.154V279.231H277.462V273.538ZM277.462 279.231H283.154V284.923H277.462V279.231ZM277.462 284.923H283.154V290.615H277.462V284.923ZM277.462 296.308H283.154V302H277.462V296.308ZM277.462 302H283.154V307.692H277.462V302ZM277.462 307.692H283.154V313.385H277.462V307.692ZM277.462 313.385H283.154V319.077H277.462V313.385ZM283.154 250.769H288.846V256.462H283.154V250.769ZM288.846 250.769H294.538V256.462H288.846V250.769ZM294.538 250.769H300.231V256.462H294.538V250.769ZM300.231 256.462H305.923V262.154H300.231V256.462ZM305.923 262.154H311.615V267.846H305.923V262.154ZM305.923 267.846H311.615V273.538H305.923V267.846ZM305.923 273.538H311.615V279.231H305.923V273.538ZM305.923 279.231H311.615V284.923H305.923V279.231ZM305.923 284.923H311.615V290.615H305.923V284.923ZM300.231 290.615H305.923V296.308H300.231V290.615ZM294.538 296.308H300.231V302H294.538V296.308ZM288.846 296.308H294.538V302H288.846V296.308ZM283.154 290.615H288.846V296.308H283.154V290.615ZM254.692 256.462H260.385V262.154H254.692V256.462ZM254.692 262.154H260.385V267.846H254.692V262.154ZM260.385 250.769H266.077V256.462H260.385V250.769ZM266.077 250.769H271.769V256.462H266.077V250.769ZM271.769 250.769H277.462V256.462H271.769V250.769ZM260.385 267.846H266.077V273.538H260.385V267.846ZM260.385 273.538H266.077V279.231H260.385V273.538ZM254.692 273.538H260.385V279.231H254.692V273.538ZM277.462 256.462H283.154V262.154H277.462V256.462ZM277.462 262.154H283.154V267.846H277.462V262.154ZM271.769 256.462H277.462V262.154H271.769V256.462ZM277.462 290.615H283.154V296.308H277.462V290.615ZM271.769 290.615H277.462V296.308H271.769V290.615ZM266.077 290.615H271.769V296.308H266.077V290.615ZM260.385 296.308H266.077V302H260.385V296.308ZM254.692 296.308H260.385V302H254.692V296.308Z" fill="white"/>
</svg>
